# xmcd
#
# Track frame offsets: 
#        182
#        14637
#        27800
#        41612
#        55565
#        70685
#        85035
#        98997
#        114245
#        128712
#        143000
#        157510
#        170597
#        184130
#        198187
#        212507
#        226265
#        239657
#        253742
#        268435
#        283447
#        297590
#
# Disc length: 4158 seconds
#
# Revision: 1
# Processed by: cddbd v1.5.2PL0 Copyright (c) Steve Scherf et al.
# Submitted via: ExactAudioCopy v1.3
#
DISCID=3c103c16
DTITLE=Blind Willie Johnson - Dark Was The Night: The Essential Record
DTITLE=ings Of Blind Willie Johnson
DYEAR=1995
DGENRE=Blues
TTITLE0=Let Your Light Shine On Me
TTITLE1=God Don't Never Change
TTITLE2=Lord I Can't Just Keep From Crying
TTITLE3=Keep Your Lamp Trimmed And Burnin'
TTITLE4=Dark Was The Night - Cold Was The Ground
TTITLE5=Nobody's Fault But Mine
TTITLE6=I Know His Blood Can Make Me Whole
TTITLE7=Mother's Children Have A Hard Time
TTITLE8=Jesus Make Up My Dying Bed
TTITLE9=If I Had My Way, I'd Tear The Building Down
TTITLE10=Jesus Is Coming Soon
TTITLE11=Bye And Bye I'm Goin' To See The King
TTITLE12=God Moves On The Water
TTITLE13=You'll Need Somebody On Your Bond
TTITLE14=Praise God I'm Satisfied
TTITLE15=When The War Was On
TTITLE16=Take Your Burden To The Lord And Leave It There
TTITLE17=Everybody Ought To Treat A Stranger Right
TTITLE18=Soul Of A Man
TTITLE19=John The Revelator
TTITLE20=Trouble Will Soon Be Over
TTITLE21=Church, I'm Fully Saved Today
EXTD=
EXTT0=
EXTT1=
EXTT2=
EXTT3=
EXTT4=
EXTT5=
EXTT6=
EXTT7=
EXTT8=
EXTT9=
EXTT10=
EXTT11=
EXTT12=
EXTT13=
EXTT14=
EXTT15=
EXTT16=
EXTT17=
EXTT18=
EXTT19=
EXTT20=
EXTT21=
PLAYORDER=
